<?xml version="1.0" standalone="no"?><!DOCTYPE svg PUBLIC "-//W3C//DTD SVG 1.1//EN" "http://www.w3.org/Graphics/SVG/1.1/DTD/svg11.dtd"><svg t="1602143113900" class="icon" viewBox="0 0 1024 1024" version="1.1" xmlns="http://www.w3.org/2000/svg" p-id="5512" xmlns:xlink="http://www.w3.org/1999/xlink" width="200" height="200"><defs><style type="text/css"></style></defs><path d="M938.688 682.688c21.376 0 39.104 15.744 42.24 36.352l0.384 6.272v40.32a128 128 0 0 1-106.432 126.208l-4.992 0.768-253.248 32.96-4.352 4.032c-29.568 26.24-61.12 41.024-94.4 42.624L512 972.352c-35.456 0-68.928-14.912-100.288-42.752l-4.352-4.032-253.248-32.96a128 128 0 0 1-111.36-121.856l-0.064-5.12v-40.32a42.688 42.688 0 1 1 85.312 0l-0.064 0.512 0.064 0.064v39.808c0 20.288 14.272 37.632 33.856 41.728l3.328 0.576 267.456 34.816c9.664 1.28 18.624 5.824 25.344 12.864 20.928 21.952 38.784 31.36 54.016 31.36s33.088-9.408 54.016-31.36a42.688 42.688 0 0 1 21.76-12.16l3.584-0.64 267.52-34.88a42.688 42.688 0 0 0 36.992-38.976l0.128-3.328v-40.32c0-23.616 19.072-42.688 42.688-42.688zM190.592 411.456l6.528 0.256c4.096 0.256 7.68 0.832 10.752 1.664 4.608 1.28 8.256 3.52 10.944 6.72 2.688 3.2 4.608 7.68 5.76 13.44 1.152 5.76 1.728 12.992 1.728 21.76v114.176l-0.064 3.072-0.32 2.56c3.072 7.68 6.144 13.824 9.216 18.56a53.248 53.248 0 0 0 9.216 11.136 36.992 36.992 0 0 0 9.408 6.144c3.2 1.408 6.464 2.752 9.792 4.032 5.12 2.048 10.816 3.584 17.088 4.608 6.272 1.024 13.376 1.536 21.312 1.536h178.56l5.76 0.256a28.736 28.736 0 0 1 12.48 3.392c3.968 2.432 5.952 7.744 5.952 16 0 8.64-1.984 14.4-5.952 17.28a31.744 31.744 0 0 1-18.24 4.16H301.568l-9.408-0.064a303.296 303.296 0 0 1-23.808-1.28 93.632 93.632 0 0 1-23.808-5.12 68.352 68.352 0 0 1-18.24-10.24 115.84 115.84 0 0 1-16.512-16.32 121.344 121.344 0 0 1-15.744 19.008 91.52 91.52 0 0 1-9.216 7.68l-11.136 8.32c-6.4 4.544-12.672 6.208-18.816 4.928a21.76 21.76 0 0 1-14.592-11.136c-4.096-6.144-5.44-11.968-4.032-17.472 1.408-5.504 6.592-11.328 15.552-17.472 8.96-6.4 16.384-14.08 22.272-23.04a48.64 48.64 0 0 0 8.832-26.88V468.672l-0.256-3.84a9.984 9.984 0 0 0-1.856-5.12c-1.408-1.728-3.904-2.56-7.488-2.56h-15.36l-5.632-0.32c-5.12-0.64-8.768-2.24-10.88-4.864-2.816-3.456-4.224-9.152-4.224-17.088 0-7.936 1.408-13.824 4.224-17.664 2.816-3.84 8.32-5.76 16.512-5.76h32.64z m657.6-99.456l7.808 0.384c9.792 0.96 17.088 3.968 21.76 8.832 5.888 6.144 8.832 16.512 8.832 31.104v89.472l-0.32 8.32c-0.96 10.24-3.84 17.792-8.512 22.592-5.888 6.016-15.744 9.024-29.568 9.024h-45.696v18.816h84.864l5.696 0.384c5.12 0.704 8.832 2.56 11.008 5.376 2.944 3.84 4.48 8.704 4.48 14.592 0 6.656-1.728 11.776-5.056 15.36-3.328 3.584-8.704 5.376-16.128 5.376h-72.192l9.472 9.984 9.92 9.216c6.784 5.888 13.568 11.328 20.352 16.32 6.784 4.992 13.312 9.6 19.584 13.632 6.272 4.096 11.84 7.808 16.704 11.136 9.472 6.656 15.104 12.544 16.896 17.664 1.792 5.12 1.152 11.008-1.92 17.664-3.84 6.656-8.576 10.368-14.208 11.136-5.632 0.768-13.696-2.432-24.192-9.6a736.64 736.64 0 0 0-17.664-12.8 261.504 261.504 0 0 1-31.872-26.56 234.816 234.816 0 0 1-15.744-17.088v62.592l-0.32 5.76a18.24 18.24 0 0 1-5.248 11.52 22.464 22.464 0 0 1-15.552 4.992c-6.912 0-12.16-1.664-15.744-4.992-3.584-3.328-5.376-9.088-5.376-17.28v-62.208l-8 8.96-7.936 8.128a424.256 424.256 0 0 1-32 29.184c-5.696 4.736-11.52 9.792-17.728 15.168a34.176 34.176 0 0 1-10.88 5.952 29.568 29.568 0 0 1-11.008 1.344 25.28 25.28 0 0 1-9.6-2.496 16.512 16.512 0 0 1-6.528-5.568c-4.352-6.4-5.76-12.608-4.224-18.56 1.536-6.08 5.888-11.136 13.056-15.232a345.408 345.408 0 0 0 42.048-29.952 310.4 310.4 0 0 0 20.352-18.56c6.528-6.592 12.352-13.056 17.472-19.456h-68.736l-4.864-0.32c-10.56-1.472-15.872-8.32-15.872-20.416 0-5.888 1.472-10.752 4.48-14.592 2.88-3.84 8.32-5.76 16.256-5.76h83.712v-18.816h-47.232l-7.808-0.32c-9.728-0.96-16.96-3.84-21.568-8.704-5.76-6.016-8.64-16.32-8.64-30.912V352.32l0.384-8.256c0.896-10.24 3.648-17.92 8.32-22.848 5.76-6.144 15.488-9.216 29.312-9.216h135.168zM608.96 402.048a38.144 38.144 0 0 1 23.424 7.68c7.424 6.016 10.368 17.088 8.832 33.28l-11.52 119.04-0.192 3.328c0 2.88 0.512 4.416 1.536 4.48 1.408 0.128 4.288-2.56 8.64-8.256 6.656-8.96 12.672-13.696 18.048-14.208 5.376-0.512 10.752 2.176 16.128 8.064 5.12 5.888 7.68 11.52 7.68 16.704 0 5.248-2.688 10.88-8.064 16.704a325.12 325.12 0 0 1-12.288 13.056l-11.136 10.944a283.968 283.968 0 0 1-11.136 10.24l-12.288 10.304a48.256 48.256 0 0 1-17.28 8.832 22.592 22.592 0 0 1-15.744-0.96c-4.608-2.176-8.192-6.528-10.752-13.056-2.56-6.528-3.328-15.808-2.304-27.84l13.44-140.544v-2.624a10.176 10.176 0 0 0-1.28-4.48 4.928 4.928 0 0 0-5.248-2.496l-22.272 2.304-4.992 0.256c-6.272 0-10.688-1.28-13.248-3.84-3.2-3.2-4.8-9.856-4.8-19.84 0-8.192 1.472-14.08 4.48-17.664 2.88-3.584 8.192-5.632 15.872-6.144l38.784-3.072zM372.992 295.872c14.592 0 21.888 7.552 21.888 22.656v27.648h67.2l5.632 0.32c5.12 0.576 8.768 1.984 10.88 4.288 2.816 3.072 4.224 8.32 4.224 15.744 0 7.424-1.408 12.8-4.224 16-2.816 3.2-8.32 4.736-16.512 4.736H394.88v49.152h87.552l5.44 0.64c4.992 0.896 8.512 2.432 10.496 4.736 2.688 3.072 4.032 8.192 4.032 15.36 0 7.424-1.472 12.8-4.416 16-2.944 3.2-8.512 4.736-16.704 4.736h-53.376V545.92l0.32 4.864a12.8 12.8 0 0 0 2.752 6.656c2.048 2.304 6.656 3.456 13.824 3.456a35.2 35.2 0 0 0 10.176-1.152 9.856 9.856 0 0 0 5.376-3.648 13.888 13.888 0 0 0 2.112-6.72c0.256-2.816 0.384-6.272 0.384-10.368 0-8.448 1.664-14.08 4.992-16.896 3.328-2.816 8.32-4.224 14.976-4.224 7.424 0 12.8 1.664 16.128 4.992 3.328 3.328 4.992 9.216 4.992 17.664 0 12.8-0.64 23.168-1.92 31.104a34.432 34.432 0 0 1-8.256 18.624 33.024 33.024 0 0 1-18.432 9.024 178.304 178.304 0 0 1-32.064 2.304c-12.544 0-22.592-1.088-30.144-3.2a37.312 37.312 0 0 1-17.664-10.24 35.584 35.584 0 0 1-8.448-17.472 129.984 129.984 0 0 1-2.112-25.152V477.888h-33.792l-0.64 10.56a310.336 310.336 0 0 1-3.008 26.688c-1.664 10.24-4.48 19.584-8.448 28.032a105.856 105.856 0 0 1-16.128 24.384 399.744 399.744 0 0 1-25.92 26.688 52.672 52.672 0 0 1-11.328 8.448 26.048 26.048 0 0 1-9.6 3.072l-4.224-0.064-3.84-1.088a19.648 19.648 0 0 1-6.336-4.224c-6.4-5.888-8.896-12.16-7.488-19.008a29.696 29.696 0 0 1 11.328-17.472c7.68-6.144 14.08-11.776 19.2-16.896 5.12-5.12 9.344-10.816 12.672-17.088 3.328-6.272 5.952-13.44 7.872-21.696 1.92-8.192 3.392-18.304 4.416-30.336h-53.376l-5.632-0.256c-5.12-0.576-8.768-1.92-10.88-4.16-2.816-2.944-4.224-8.256-4.224-15.936 0-7.424 1.408-12.8 4.224-16.128 2.816-3.328 8.32-4.992 16.512-4.992h95.232v-49.152h-43.392l-4.096 7.872-4.544 8.064c-3.2 5.504-6.848 11.072-10.944 16.704-6.4 8.448-12.288 12.928-17.664 13.44a22.784 22.784 0 0 1-16.128-5.376c-6.656-4.608-9.344-9.792-8.064-15.552a61.824 61.824 0 0 1 8.832-19.392c13.312-18.688 22.528-39.68 27.648-62.976a31.744 31.744 0 0 1 9.216-16.896c4.352-3.84 10.24-4.992 17.664-3.456 7.424 2.048 12.16 5.376 14.208 9.984s2.048 11.392 0 20.352a9.088 9.088 0 0 0-0.768 3.264 6.464 6.464 0 0 1-0.768 2.88h28.8v-27.648l0.32-5.312c1.6-11.52 8.64-17.28 21.184-17.28z m471.36 121.344h-41.856v23.04h38.4c2.304 0 3.456-2.176 3.456-6.528V417.28z m-84.096 0h-41.088v16.512l0.192 2.88c0.32 2.432 1.152 3.648 2.56 3.648h38.4v-23.04zM577.92 301.248c6.144 0.256 12.544 3.456 19.2 9.6 4.864 4.608 10.24 10.24 16 16.704 5.76 6.528 11.776 13.504 18.176 20.928 11.52 13.824 11.776 26.112 0.768 36.864-5.632 5.632-11.328 8.064-17.088 7.296-5.76-0.768-11.84-5.248-18.24-13.44a288.128 288.128 0 0 0-7.68-9.408l-6.912-8.064-3.584-4.032-3.84-4.224a1243.648 1243.648 0 0 1-9.472-9.984c-5.888-6.4-9.152-12.16-9.792-17.472-0.64-5.248 1.6-10.88 6.72-17.088a18.56 18.56 0 0 1 15.744-7.68z m-410.496 3.264c5.248-0.384 11.328 2.368 18.24 8.32a312.128 312.128 0 0 1 35.712 35.648 38.4 38.4 0 0 1 9.408 18.816c0.896 6.144-2.368 12.16-9.792 18.048-6.4 5.12-12.16 6.912-17.28 5.376a33.664 33.664 0 0 1-15.36-11.52 206.976 206.976 0 0 0-15.552-16.64 474.368 474.368 0 0 0-7.872-7.68 558.464 558.464 0 0 1-9.216-9.088 31.04 31.04 0 0 1-9.216-16.512c-0.768-5.376 1.408-11.136 6.528-17.28a21.824 21.824 0 0 1 14.4-7.488z m673.536 48.64h-38.4v26.048h41.856V356.288a5.504 5.504 0 0 0-0.576-2.24c-0.384-0.64-1.28-0.96-2.88-0.96z m-80.64 0h-38.4l-1.536 0.192-0.768 0.704a13.248 13.248 0 0 0-0.384 4.032v21.12h41.088v-26.112z m218.368-188.992a128 128 0 0 1 2.56 19.584l0.128 6.592V256A42.688 42.688 0 0 1 896 256V190.336a42.688 42.688 0 0 0-48.256-42.304l-3.136 0.512-323.84 67.648a42.688 42.688 0 0 1-14.016 0.576l-3.456-0.64-323.904-67.584a42.688 42.688 0 0 0-51.264 38.592L128 190.336V256A42.688 42.688 0 1 1 42.688 256V190.336A128 128 0 0 1 190.336 63.872l6.464 1.152L512 130.816l315.2-65.792a128 128 0 0 1 151.424 99.136z" p-id="5513" fill="#e6e6e6"></path></svg>